<svg xmlns="http://www.w3.org/2000/svg" width="14" height="14" viewBox="0 0 14 14" fill="none">
	<g clip-path="url(#clip0_7212_3917)">
		<path d="M5.03956 8.03253L5.03956 9.77737C5.01515 10.1703 4.83631 10.5376 4.54209 10.7992C4.24786 11.0607 3.86213 11.1953 3.46905 11.1736L1.11328 11.1736" stroke="white" stroke-linecap="round" stroke-linejoin="round" />
		<path d="M1.11328 9.99396L1.11328 11.9571" stroke="white" stroke-width="1.2" stroke-linecap="round" stroke-linejoin="round" />
		<path d="M8.57322 6.46136L1.50591 6.46136C1.40178 6.46136 1.30191 6.41999 1.22828 6.34636C1.15465 6.27273 1.11328 6.17286 1.11328 6.06873L1.11328 4.10559C1.11328 3.4808 1.36148 2.8816 1.80327 2.43981C2.24506 1.99801 2.84426 1.74982 3.46905 1.74982L12.1069 1.74982C12.3151 1.74982 12.5149 1.83255 12.6621 1.97981C12.8094 2.12708 12.8921 2.32681 12.8921 2.53507L12.8921 3.20254C12.8921 3.35448 12.8481 3.50315 12.7653 3.63055C12.6825 3.75794 12.5645 3.85858 12.4257 3.92027L9.35847 5.284L9.35847 5.6761C9.35847 5.88436 9.27574 6.0841 9.12848 6.23136C8.98121 6.37862 8.78148 6.46136 8.57322 6.46136Z" stroke="white" stroke-linecap="round" stroke-linejoin="round" />
		<path d="M11.3215 4.40997L11.3215 7.24527C11.3215 7.45354 11.2388 7.65327 11.0915 7.80053C10.9443 7.9478 10.7445 8.03053 10.5363 8.03053L3.46895 8.03053C3.05242 8.03053 2.65296 7.86506 2.35843 7.57054C2.0639 7.27601 1.89844 6.87654 1.89844 6.46002" stroke="white" stroke-linecap="round" stroke-linejoin="round" />
		<path d="M12.8906 5.28302L12.8906 6.85353" stroke="white" stroke-linecap="round" stroke-linejoin="round" />
	</g>
	<defs>
		<clipPath id="clip0_7212_3917">
			<rect width="14" height="14" fill="white" />
		</clipPath>
	</defs>
</svg>
