<svg xmlns="http://www.w3.org/2000/svg" width="25" height="24" viewBox="0 0 25 24" fill="none">
	<path d="M8.96515 13.7695L8.96515 16.7607C8.92329 17.4343 8.61672 18.064 8.11233 18.5124C7.60795 18.9608 6.94669 19.1915 6.27284 19.1541L2.23438 19.1541" stroke="#3C5F79" stroke-width="1.5" stroke-linecap="round" stroke-linejoin="round" />
	<path d="M2.23438 17.1328L2.23438 20.4982" stroke="#3C5F79" stroke-width="1.5" stroke-linecap="round" stroke-linejoin="round" />
	<path d="M15.0228 11.0769L2.90745 11.0769C2.72894 11.0769 2.55774 11.006 2.43151 10.8798C2.30529 10.7536 2.23438 10.5824 2.23438 10.4038L2.23438 7.03846C2.23438 5.9674 2.65985 4.9402 3.41721 4.18284C4.17457 3.42548 5.20177 3 6.27284 3L21.0805 3C21.4376 3 21.7799 3.14183 22.0324 3.39428C22.2849 3.64673 22.4267 3.98913 22.4267 4.34615L22.4267 5.49039C22.4267 5.75084 22.3512 6.00572 22.2093 6.22411C22.0673 6.4425 21.8651 6.61502 21.6271 6.72077L16.369 9.05859L16.369 9.73077C16.369 10.0878 16.2272 10.4302 15.9747 10.6826C15.7223 10.9351 15.3799 11.0769 15.0228 11.0769Z" stroke="#3C5F79" stroke-width="1.5" stroke-linecap="round" stroke-linejoin="round" />
	<path d="M19.7398 7.56055L19.7398 12.4211C19.7398 12.7781 19.598 13.1205 19.3455 13.3729C19.0931 13.6254 18.7507 13.7672 18.3936 13.7672L6.27825 13.7672C5.5642 13.7672 4.8794 13.4836 4.3745 12.9787C3.86959 12.4737 3.58594 11.789 3.58594 11.0749" stroke="#3C5F79" stroke-width="1.5" stroke-linecap="round" stroke-linejoin="round" />
	<path d="M22.4297 9.05664L22.4297 11.7489" stroke="#3C5F79" stroke-width="1.5" stroke-linecap="round" stroke-linejoin="round" />
</svg>
