<svg xmlns="http://www.w3.org/2000/svg" width="24" height="24" viewBox="0 0 24 24" fill="none">
	<path d="M21.9975 16.9193L21.9975 19.9193C21.9986 20.1978 21.9416 20.4735 21.83 20.7287C21.7184 20.9838 21.5548 21.2129 21.3496 21.4012C21.1443 21.5894 20.9021 21.7328 20.6382 21.822C20.3744 21.9112 20.0949 21.9444 19.8175 21.9193C16.7403 21.5849 13.7845 20.5334 11.1875 18.8493C8.77132 17.314 6.72283 15.2655 5.18749 12.8493C3.49747 10.2405 2.44573 7.2703 2.11749 4.1793C2.0925 3.90277 2.12537 3.62406 2.21399 3.36093C2.30262 3.09779 2.44506 2.85599 2.63226 2.65092C2.81945 2.44586 3.0473 2.28201 3.30128 2.16983C3.55527 2.05764 3.82983 1.99956 4.10749 1.9993L7.10749 1.9993C7.5928 1.99453 8.06328 2.16638 8.43125 2.48284C8.79922 2.79929 9.03957 3.23875 9.10749 3.7193C9.23412 4.67937 9.46894 5.62203 9.80749 6.5293C9.94204 6.88723 9.97116 7.27622 9.8914 7.65018C9.81164 8.02415 9.62636 8.36741 9.35749 8.6393L8.08749 9.9093C9.51105 12.4128 11.5839 14.4857 14.0875 15.9093L15.3575 14.6393C15.6294 14.3704 15.9726 14.1852 16.3466 14.1054C16.7206 14.0256 17.1096 14.0548 17.4675 14.1893C18.3748 14.5279 19.3174 14.7627 20.2775 14.8893C20.7633 14.9578 21.2069 15.2025 21.524 15.5768C21.8412 15.9511 22.0097 16.4289 21.9975 16.9193Z" stroke="#3C5F79" stroke-width="1.5" stroke-linecap="round" stroke-linejoin="round" />
</svg>
