<svg xmlns="http://www.w3.org/2000/svg" width="14" height="14" viewBox="0 0 14 14" fill="none">
	<g clip-path="url(#clip0_7212_3906)">
		<path d="M9.92969 7.36302C9.92969 7.4892 9.95454 7.61415 10.0028 7.73072C10.0511 7.8473 10.1219 7.95323 10.2111 8.04245C10.3003 8.13167 10.4063 8.20245 10.5228 8.25074C10.6394 8.29903 10.7644 8.32388 10.8905 8.32388C11.0167 8.32388 11.1417 8.29903 11.2583 8.25074C11.3748 8.20245 11.4808 8.13167 11.57 8.04245C11.6592 7.95323 11.73 7.8473 11.7783 7.73072C11.8266 7.61415 11.8514 7.4892 11.8514 7.36302C11.8514 7.23684 11.8266 7.11189 11.7783 6.99531C11.73 6.87874 11.6592 6.77281 11.57 6.68359C11.4808 6.59437 11.3748 6.52359 11.2583 6.4753C11.1417 6.42701 11.0167 6.40216 10.8905 6.40216C10.7644 6.40216 10.6394 6.42701 10.5228 6.4753C10.4063 6.52359 10.3003 6.59437 10.2111 6.68359C10.1219 6.77281 10.0511 6.87874 10.0028 6.99531C9.95454 7.11189 9.92969 7.23684 9.92969 7.36302Z" stroke="white" stroke-linecap="round" stroke-linejoin="round" />
		<path d="M12.4589 9.52258C12.2735 9.28354 12.0359 9.09008 11.7642 8.95699C11.4926 8.82389 11.1941 8.7547 10.8916 8.7547C10.5891 8.7547 10.2906 8.82389 10.0189 8.95699C9.74724 9.09008 9.50962 9.28354 9.32422 9.52258" stroke="white" stroke-linecap="round" stroke-linejoin="round" />
		<path d="M2.14062 7.36302C2.14062 7.61786 2.24186 7.86225 2.42205 8.04245C2.60225 8.22265 2.84665 8.32388 3.10148 8.32388C3.35632 8.32388 3.60072 8.22265 3.78091 8.04245C3.96111 7.86225 4.06234 7.61786 4.06234 7.36302C4.06234 7.10818 3.96111 6.86379 3.78091 6.68359C3.60072 6.50339 3.35632 6.40216 3.10148 6.40216C2.84665 6.40216 2.60225 6.50339 2.42205 6.68359C2.24186 6.86379 2.14062 7.10818 2.14062 7.36302Z" stroke="white" stroke-linecap="round" stroke-linejoin="round" />
		<path d="M1.53125 9.5226C1.71633 9.28351 1.95362 9.08989 2.22499 8.95654C2.49636 8.8232 2.79462 8.75366 3.09698 8.75324C3.39933 8.75281 3.69779 8.82152 3.96953 8.95411C4.24127 9.08669 4.4791 9.27965 4.66484 9.51823" stroke="white" stroke-linecap="round" stroke-linejoin="round" />
		<path d="M9.44406 10.2809C9.44406 9.631 9.18588 9.0077 8.72631 8.54813C8.26675 8.08856 7.64344 7.83038 6.99352 7.83038C6.34359 7.83038 5.72028 8.08856 5.26072 8.54813C4.80115 9.0077 4.54297 9.631 4.54297 10.2809" stroke="white" stroke-linecap="round" stroke-linejoin="round" />
		<path d="M5.52344 5.71308C5.52344 6.09715 5.67601 6.46548 5.94758 6.73706C6.21916 7.00863 6.5875 7.1612 6.97156 7.1612C7.35563 7.1612 7.72397 7.00863 7.99554 6.73706C8.26712 6.46548 8.41969 6.09715 8.41969 5.71308C8.41969 5.32901 8.26712 4.96068 7.99554 4.6891C7.72397 4.41752 7.35563 4.26495 6.97156 4.26495C6.5875 4.26495 6.21916 4.41752 5.94758 4.6891C5.67601 4.96068 5.52344 5.32901 5.52344 5.71308Z" stroke="white" stroke-linecap="round" stroke-linejoin="round" />
		<path d="M0.847656 6.99982C0.847656 7.80775 1.00679 8.60778 1.31598 9.35422C1.62516 10.1007 2.07834 10.7789 2.64964 11.3502C3.22093 11.9215 3.89916 12.3747 4.6456 12.6838C5.39204 12.993 6.19206 13.1522 7 13.1522C7.80794 13.1522 8.60796 12.993 9.3544 12.6838C10.1008 12.3747 10.7791 11.9215 11.3504 11.3502C11.9217 10.7789 12.3748 10.1007 12.684 9.35422C12.9932 8.60778 13.1523 7.80775 13.1523 6.99982C13.1523 6.19188 12.9932 5.39185 12.684 4.64542C12.3748 3.89898 11.9217 3.22075 11.3504 2.64945C10.7791 2.07815 10.1008 1.62498 9.3544 1.31579C8.60796 1.00661 7.80794 0.847473 7 0.847473C6.19206 0.847473 5.39204 1.00661 4.6456 1.31579C3.89916 1.62498 3.22093 2.07815 2.64964 2.64945C2.07834 3.22075 1.62516 3.89898 1.31598 4.64542C1.00679 5.39185 0.847656 6.19188 0.847656 6.99982Z" stroke="white" stroke-linecap="round" stroke-linejoin="round" />
	</g>
	<defs>
		<clipPath id="clip0_7212_3906">
			<rect width="14" height="14" fill="white" />
		</clipPath>
	</defs>
</svg>
