<svg xmlns="http://www.w3.org/2000/svg" width="25" height="24" viewBox="0 0 25 24" fill="none">
	<path d="M17.3594 12.6228C17.3594 12.8391 17.402 13.0533 17.4848 13.2531C17.5675 13.453 17.6889 13.6346 17.8418 13.7875C17.9948 13.9405 18.1764 14.0618 18.3762 14.1446C18.5761 14.2274 18.7903 14.27 19.0066 14.27C19.2229 14.27 19.4371 14.2274 19.6369 14.1446C19.8368 14.0618 20.0183 13.9405 20.1713 13.7875C20.3243 13.6346 20.4456 13.453 20.5284 13.2531C20.6111 13.0533 20.6538 12.8391 20.6538 12.6228C20.6538 12.4065 20.6111 12.1923 20.5284 11.9924C20.4456 11.7926 20.3243 11.611 20.1713 11.458C20.0183 11.3051 19.8368 11.1838 19.6369 11.101C19.4371 11.0182 19.2229 10.9756 19.0066 10.9756C18.7903 10.9756 18.5761 11.0182 18.3762 11.101C18.1764 11.1838 17.9948 11.3051 17.8418 11.458C17.6889 11.611 17.5675 11.7926 17.4848 11.9924C17.402 12.1923 17.3594 12.4065 17.3594 12.6228Z" stroke="#3C5F79" stroke-width="1.5" stroke-linecap="round" stroke-linejoin="round" />
	<path d="M21.7019 16.3232C21.384 15.9134 20.9767 15.5818 20.511 15.3536C20.0453 15.1255 19.5336 15.0068 19.015 15.0068C18.4964 15.0068 17.9847 15.1255 17.519 15.3536C17.0533 15.5818 16.646 15.9134 16.3281 16.3232" stroke="#3C5F79" stroke-width="1.5" stroke-linecap="round" stroke-linejoin="round" />
	<path d="M4 12.6228C4 13.0596 4.17354 13.4786 4.48245 13.7875C4.79136 14.0964 5.21033 14.27 5.64719 14.27C6.08405 14.27 6.50302 14.0964 6.81193 13.7875C7.12083 13.4786 7.29438 13.0596 7.29438 12.6228C7.29438 12.1859 7.12083 11.7669 6.81193 11.458C6.50302 11.1491 6.08405 10.9756 5.64719 10.9756C5.21033 10.9756 4.79136 11.1491 4.48245 11.458C4.17354 11.7669 4 12.1859 4 12.6228Z" stroke="#3C5F79" stroke-width="1.5" stroke-linecap="round" stroke-linejoin="round" />
	<path d="M2.96094 16.3257C3.27822 15.9159 3.685 15.584 4.1502 15.3554C4.61541 15.1268 5.12671 15.0076 5.64504 15.0068C6.16337 15.0061 6.675 15.1239 7.14084 15.3512C7.60668 15.5785 8.01439 15.9093 8.33281 16.3182" stroke="#3C5F79" stroke-width="1.5" stroke-linecap="round" stroke-linejoin="round" />
	<path d="M16.5269 17.6238C16.5269 16.5096 16.0843 15.4411 15.2964 14.6533C14.5086 13.8654 13.4401 13.4229 12.3259 13.4229C11.2118 13.4229 10.1433 13.8654 9.35543 14.6533C8.5676 15.4411 8.125 16.5096 8.125 17.6238" stroke="#3C5F79" stroke-width="1.5" stroke-linecap="round" stroke-linejoin="round" />
	<path d="M9.80469 9.795C9.80469 10.4534 10.0662 11.0848 10.5318 11.5504C10.9974 12.016 11.6288 12.2775 12.2872 12.2775C12.9456 12.2775 13.577 12.016 14.0426 11.5504C14.5081 11.0848 14.7697 10.4534 14.7697 9.795C14.7697 9.1366 14.5081 8.50517 14.0426 8.03961C13.577 7.57405 12.9456 7.3125 12.2872 7.3125C11.6288 7.3125 10.9974 7.57405 10.5318 8.03961C10.0662 8.50517 9.80469 9.1366 9.80469 9.795Z" stroke="#3C5F79" stroke-width="1.5" stroke-linecap="round" stroke-linejoin="round" />
	<path d="M1.78125 12C1.78125 13.385 2.05405 14.7565 2.58408 16.0361C3.11411 17.3157 3.89099 18.4784 4.87036 19.4578C5.84973 20.4371 7.0124 21.214 8.29201 21.744C9.57162 22.2741 10.9431 22.5469 12.3281 22.5469C13.7132 22.5469 15.0846 22.2741 16.3642 21.744C17.6438 21.214 18.8065 20.4371 19.7859 19.4578C20.7653 18.4784 21.5421 17.3157 22.0722 16.0361C22.6022 14.7565 22.875 13.385 22.875 12C22.875 10.615 22.6022 9.24349 22.0722 7.96389C21.5421 6.68428 20.7653 5.5216 19.7859 4.54223C18.8065 3.56287 17.6438 2.78599 16.3642 2.25596C15.0846 1.72593 13.7132 1.45313 12.3281 1.45312C10.9431 1.45313 9.57162 1.72593 8.29201 2.25596C7.0124 2.78599 5.84973 3.56287 4.87036 4.54223C3.89099 5.5216 3.11411 6.68428 2.58408 7.96389C2.05405 9.24349 1.78125 10.615 1.78125 12Z" stroke="#3C5F79" stroke-width="1.5" stroke-linecap="round" stroke-linejoin="round" />
</svg>
