<svg xmlns="http://www.w3.org/2000/svg" width="25" height="24" viewBox="0 0 25 24" fill="none">
	<path d="M2.95312 7.07617H21.7031C21.7031 7.07617 22.1719 7.07617 22.1719 7.54492V9.41992C22.1719 9.41992 22.1719 9.88867 21.7031 9.88867H2.95312C2.95312 9.88867 2.48438 9.88867 2.48438 9.41992V7.54492C2.48438 7.54492 2.48438 7.07617 2.95312 7.07617Z" stroke="#3C5F79" stroke-width="1.5" stroke-linecap="round" stroke-linejoin="round" />
	<path d="M20.7656 7.07617C20.7656 4.26367 16.5469 1.45117 12.3281 1.45117C8.10938 1.45117 3.89062 4.26367 3.89062 7.07617" stroke="#3C5F79" stroke-width="1.5" stroke-linecap="round" stroke-linejoin="round" />
	<path d="M3.1875 16.9199H21.4688C21.4688 16.9199 22.1719 16.9199 22.1719 17.623V19.0293C22.1719 19.0293 22.1719 19.7324 21.4688 19.7324H3.1875C3.1875 19.7324 2.48438 19.7324 2.48438 19.0293V17.623C2.48438 17.623 2.48438 16.9199 3.1875 16.9199Z" stroke="#3C5F79" stroke-width="1.5" stroke-linecap="round" stroke-linejoin="round" />
	<path d="M2.48438 22.5449H22.1719" stroke="#3C5F79" stroke-width="1.5" stroke-linecap="round" stroke-linejoin="round" />
	<path d="M3.89062 9.88867V16.9199" stroke="#3C5F79" stroke-width="1.5" stroke-linecap="round" stroke-linejoin="round" />
	<path d="M9.51562 9.88867V16.9199" stroke="#3C5F79" stroke-width="1.5" stroke-linecap="round" stroke-linejoin="round" />
	<path d="M15.1406 9.88867V16.9199" stroke="#3C5F79" stroke-width="1.5" stroke-linecap="round" stroke-linejoin="round" />
	<path d="M20.7656 9.88867V16.9199" stroke="#3C5F79" stroke-width="1.5" stroke-linecap="round" stroke-linejoin="round" />
</svg>
