<svg xmlns="http://www.w3.org/2000/svg" width="24" height="24" viewBox="0 0 24 24" fill="none">
	<g clip-path="url(#clip0_7212_2362)">
		<path d="M21.5714 3H2.71429C1.76751 3 1 3.76751 1 4.71429V11.5714C1 12.5182 1.76751 13.2857 2.71429 13.2857H21.5714C22.5182 13.2857 23.2857 12.5182 23.2857 11.5714V4.71429C23.2857 3.76751 22.5182 3 21.5714 3Z" stroke="#3C5F79" stroke-width="1.5" stroke-linecap="round" stroke-linejoin="round" />
		<path d="M6.13839 8.99944C6.61178 8.99944 6.99554 8.61569 6.99554 8.1423C6.99554 7.66891 6.61178 7.28516 6.13839 7.28516C5.66501 7.28516 5.28125 7.66891 5.28125 8.1423C5.28125 8.61569 5.66501 8.99944 6.13839 8.99944Z" stroke="#3C5F79" stroke-width="1.5" stroke-linecap="round" stroke-linejoin="round" />
		<path d="M11.2812 8.14258H14.7098" stroke="#3C5F79" stroke-width="1.5" stroke-linecap="round" stroke-linejoin="round" />
		<path d="M12.1484 13.2852V20.9994" stroke="#3C5F79" stroke-width="1.5" stroke-linecap="round" stroke-linejoin="round" />
		<path d="M3.57031 21H20.7132" stroke="#3C5F79" stroke-width="1.5" stroke-linecap="round" stroke-linejoin="round" />
	</g>
	<defs>
		<clipPath id="clip0_7212_2362">
			<rect width="24" height="24" fill="white" />
		</clipPath>
	</defs>
</svg>
