<svg xmlns="http://www.w3.org/2000/svg" width="25" height="24" viewBox="0 0 25 24" fill="none">
	<g clip-path="url(#clip0_7212_912)">
		<path d="M20.5781 6.74805V5.24805C20.5781 4.85022 20.4201 4.46869 20.1388 4.18739C19.8575 3.90608 19.4759 3.74805 19.0781 3.74805H15.0781" stroke="#3C5F79" stroke-width="1.5" stroke-linecap="round" stroke-linejoin="round" />
		<path d="M6.58594 3.74805H2.58594C2.18811 3.74805 1.80658 3.90608 1.52528 4.18739C1.24397 4.46869 1.08594 4.85022 1.08594 5.24805V21.748C1.08594 22.1459 1.24397 22.5274 1.52528 22.8087C1.80658 23.09 2.18811 23.248 2.58594 23.248H6.33594" stroke="#3C5F79" stroke-width="1.5" stroke-linecap="round" stroke-linejoin="round" />
		<path d="M14.7558 4.73114C14.706 4.88034 14.6105 5.01012 14.483 5.10217C14.3554 5.19421 14.2021 5.24387 14.0448 5.24414H7.62582C7.46834 5.24408 7.31486 5.19452 7.18709 5.10246C7.05932 5.0104 6.96373 4.88051 6.91382 4.73114L5.91382 1.73114C5.87603 1.61837 5.86563 1.49822 5.8835 1.38063C5.90136 1.26305 5.94698 1.1514 6.01656 1.05495C6.08614 0.958487 6.17769 0.879987 6.28364 0.82594C6.38959 0.771893 6.50688 0.743854 6.62582 0.744143H15.0438C15.1628 0.743854 15.2801 0.771893 15.386 0.82594C15.4919 0.879987 15.5835 0.958487 15.6531 1.05495C15.7227 1.1514 15.7683 1.26305 15.7861 1.38063C15.804 1.49822 15.7936 1.61837 15.7558 1.73114L14.7558 4.73114Z" stroke="#3C5F79" stroke-width="1.5" stroke-linecap="round" stroke-linejoin="round" />
		<path d="M7.07031 20.248H4.82031C4.6214 20.248 4.43063 20.169 4.28998 20.0284C4.14933 19.8877 4.07031 19.697 4.07031 19.498V6.74805" stroke="#3C5F79" stroke-width="1.5" stroke-linecap="round" stroke-linejoin="round" />
		<path d="M16.0859 7.49414V9.74414" stroke="#3C5F79" stroke-width="1.5" stroke-linecap="round" stroke-linejoin="round" />
		<path d="M7.08594 9.74414H11.5859" stroke="#3C5F79" stroke-width="1.5" stroke-linecap="round" stroke-linejoin="round" />
		<path d="M7.08594 14.2441H8.58594" stroke="#3C5F79" stroke-width="1.5" stroke-linecap="round" stroke-linejoin="round" />
		<path d="M13.3604 22.7151L9.64844 23.2451L10.1784 19.5331L19.7244 9.98714C20.1464 9.56518 20.7187 9.32812 21.3154 9.32812C21.9122 9.32813 22.4845 9.56518 22.9064 9.98714C23.3284 10.4091 23.5655 10.9814 23.5655 11.5781C23.5655 12.1749 23.3284 12.7472 22.9064 13.1691L13.3604 22.7151Z" stroke="#3C5F79" stroke-width="1.5" stroke-linecap="round" stroke-linejoin="round" />
	</g>
	<defs>
		<clipPath id="clip0_7212_912">
			<rect width="24" height="24" fill="white" transform="translate(0.335938)" />
		</clipPath>
	</defs>
</svg>
