<svg xmlns="http://www.w3.org/2000/svg" width="14" height="14" viewBox="0 0 14 14" fill="none">
	<g clip-path="url(#clip0_7212_3868)">
		<path d="M11.8099 3.9375V3.0625C11.8099 2.83044 11.7177 2.60788 11.5536 2.44378C11.3895 2.27969 11.167 2.1875 10.9349 2.1875H8.60156" stroke="white" stroke-linecap="round" stroke-linejoin="round" />
		<path d="M3.64583 2.1875H1.3125C1.08044 2.1875 0.857876 2.27969 0.693782 2.44378C0.529687 2.60788 0.4375 2.83044 0.4375 3.0625V12.6875C0.4375 12.9196 0.529687 13.1421 0.693782 13.3062C0.857876 13.4703 1.08044 13.5625 1.3125 13.5625H3.5" stroke="white" stroke-linecap="round" stroke-linejoin="round" />
		<path d="M8.41485 2.7613C8.38577 2.84833 8.3301 2.92404 8.25568 2.97773C8.18126 3.03142 8.09187 3.06039 8.0001 3.06055H4.25569C4.16382 3.06051 4.0743 3.0316 3.99976 2.9779C3.92523 2.9242 3.86947 2.84843 3.84035 2.7613L3.25702 1.0113C3.23497 0.945514 3.22891 0.875426 3.23933 0.806834C3.24975 0.738241 3.27636 0.673117 3.31695 0.61685C3.35754 0.560582 3.41095 0.51479 3.47275 0.483263C3.53455 0.451736 3.60297 0.43538 3.67235 0.435548H8.58285C8.65223 0.43538 8.72065 0.451736 8.78246 0.483263C8.84426 0.51479 8.89767 0.560582 8.93826 0.61685C8.97885 0.673117 9.00545 0.738241 9.01587 0.806834C9.0263 0.875426 9.02023 0.945514 8.99819 1.0113L8.41485 2.7613Z" stroke="white" stroke-linecap="round" stroke-linejoin="round" />
		<path d="M3.92969 11.8125H2.61719C2.50116 11.8125 2.38988 11.7664 2.30783 11.6844C2.22578 11.6023 2.17969 11.491 2.17969 11.375V3.9375" stroke="white" stroke-linecap="round" stroke-linejoin="round" />
		<path d="M9.1875 4.37305V5.68555" stroke="white" stroke-linecap="round" stroke-linejoin="round" />
		<path d="M3.9375 5.68555H6.5625" stroke="white" stroke-linecap="round" stroke-linejoin="round" />
		<path d="M3.9375 8.31055H4.8125" stroke="white" stroke-linecap="round" stroke-linejoin="round" />
		<path d="M7.60283 13.2525L5.4375 13.5616L5.74667 11.3963L11.3152 5.82778C11.5613 5.58164 11.8952 5.44336 12.2433 5.44336C12.5913 5.44336 12.9252 5.58164 13.1713 5.82778C13.4175 6.07393 13.5558 6.40777 13.5558 6.75587C13.5558 7.10397 13.4175 7.43781 13.1713 7.68395L7.60283 13.2525Z" stroke="white" stroke-linecap="round" stroke-linejoin="round" />
	</g>
	<defs>
		<clipPath id="clip0_7212_3868">
			<rect width="14" height="14" fill="white" />
		</clipPath>
	</defs>
</svg>
