<svg xmlns="http://www.w3.org/2000/svg" width="25" height="24" viewBox="0 0 25 24" fill="none">
	<g clip-path="url(#clip0_7212_697)">
		<path d="M5.05246 15.8588C7.1827 15.8588 8.9096 14.1319 8.9096 12.0017C8.9096 9.87143 7.1827 8.14453 5.05246 8.14453C2.92222 8.14453 1.19531 9.87143 1.19531 12.0017C1.19531 14.1319 2.92222 15.8588 5.05246 15.8588Z" stroke="#0B3757" stroke-width="1.5" stroke-linecap="round" stroke-linejoin="round" />
		<path d="M19.6228 23.142C21.7529 23.142 23.4799 21.415 23.4799 19.2849C23.4799 17.1547 21.7529 15.4277 19.6228 15.4277C17.4926 15.4277 15.7656 17.1547 15.7656 19.2849C15.7656 21.415 17.4926 23.142 19.6228 23.142Z" stroke="#0B3757" stroke-width="1.5" stroke-linecap="round" stroke-linejoin="round" />
		<path d="M19.6228 8.57171C21.7529 8.57171 23.4799 6.84481 23.4799 4.71457C23.4799 2.58433 21.7529 0.857422 19.6228 0.857422C17.4926 0.857422 15.7656 2.58433 15.7656 4.71457C15.7656 6.84481 17.4926 8.57171 19.6228 8.57171Z" stroke="#0B3757" stroke-width="1.5" stroke-linecap="round" stroke-linejoin="round" />
		<path d="M8.5 10.2849L16.18 6.42773" stroke="#0B3757" stroke-width="1.5" stroke-linecap="round" stroke-linejoin="round" />
		<path d="M8.5 13.7148L16.18 17.572" stroke="#0B3757" stroke-width="1.5" stroke-linecap="round" stroke-linejoin="round" />
	</g>
	<defs>
		<clipPath id="clip0_7212_697">
			<rect width="24" height="24" fill="white" transform="translate(0.335938)" />
		</clipPath>
	</defs>
</svg>
