<svg xmlns="http://www.w3.org/2000/svg" width="14" height="14" viewBox="0 0 14 14" fill="none">
	<path d="M2.75 9.24921C3.99264 9.24921 5 8.24185 5 6.99921C5 5.75657 3.99264 4.74921 2.75 4.74921C1.50736 4.74921 0.5 5.75657 0.5 6.99921C0.5 8.24185 1.50736 9.24921 2.75 9.24921Z" stroke="white" stroke-linecap="round" stroke-linejoin="round" />
	<path d="M11.25 13.5002C12.4926 13.5002 13.5 12.4928 13.5 11.2502C13.5 10.0076 12.4926 9.00018 11.25 9.00018C10.0074 9.00018 9 10.0076 9 11.2502C9 12.4928 10.0074 13.5002 11.25 13.5002Z" stroke="white" stroke-linecap="round" stroke-linejoin="round" />
	<path d="M11.25 4.9997C12.4926 4.9997 13.5 3.99234 13.5 2.7497C13.5 1.50706 12.4926 0.499695 11.25 0.499695C10.0074 0.499695 9 1.50706 9 2.7497C9 3.99234 10.0074 4.9997 11.25 4.9997Z" stroke="white" stroke-linecap="round" stroke-linejoin="round" />
	<path d="M4.75781 6.00018L9.23781 3.75018" stroke="white" stroke-linecap="round" stroke-linejoin="round" />
	<path d="M4.75781 7.99969L9.23781 10.2497" stroke="white" stroke-linecap="round" stroke-linejoin="round" />
</svg>
